<?xml version="1.0" encoding="utf-8"?>
<!-- Generator: Adobe Illustrator 19.2.0, SVG Export Plug-In . SVG Version: 6.00 Build 0)  -->
<svg version="1.1" id="Слой_1" xmlns="http://www.w3.org/2000/svg" xmlns:xlink="http://www.w3.org/1999/xlink" x="0px" y="0px"
	 viewBox="0 0 44 61.7" style="enable-background:new 0 0 44 61.7;" xml:space="preserve">
<style type="text/css">
	.st0{fill:#DAE2C3;}
	.st1{display:none;}
	.st2{display:inline;fill:#DAE2C3;}
	.st3{display:inline;fill:#E2D5CF;}
</style>
<g>
	<path class="st0" d="M13.5,24.2l-6.2-9.9l15.2-11h8.6v56h-12v-39L13.5,24.2z"/>
</g>
<g class="st1">
	<path class="st2" d="M39.6,59.1H3.5v-9.6c0.1-0.1,1.4-1.3,3.9-3.8l4.4-4.4c1-1.1,2.2-2.4,3.8-4c1.8-1.9,3.1-3.4,3.8-4.6l2.6-4.1
		c1.9-2.8,2.8-5.7,2.8-8.7c0-3.7-1.7-5.5-5.1-5.5c-1.5,0-2.8,0.5-3.7,1.5c-0.9,1-1.7,2.5-2.5,4.5l-10-4.6c1-4.2,2.9-7.5,6-9.9
		c3-2.4,6.9-3.6,11.6-3.6c5.2,0,9.2,1.5,12.1,4.4c2.9,2.9,4.4,6.5,4.4,10.7c0,10.6-6.2,20.7-18.7,30.3h20.6V59.1z"/>
</g>
<g class="st1">
	<path class="st3" d="M20.5,59.8c-4.3,0-8-0.8-11.2-2.5c-3.2-1.7-5.6-3.9-7.3-6.8l6.6-8.9c3.6,4.1,7.3,6.2,11,6.2
		c2.2,0,4-0.5,5.2-1.5c1.2-1,1.8-2.3,1.8-3.9c0-4.1-3.2-6.2-9.5-6.2h-3.5v-12h3.2c2.3,0,4.1-0.5,5.6-1.5c1.4-1,2.1-2.4,2.1-4.1
		c0-1.4-0.4-2.5-1.3-3.4c-0.9-0.9-2.1-1.3-3.8-1.3c-3.7,0-7,1.7-9.7,5l-6.6-8.6c3.4-5.6,9.2-8.4,17.4-8.4c5,0,9,1.3,12.1,3.9
		c3.1,2.6,4.7,6,4.7,10.4c0,6.2-2.8,10.6-8.3,13.1v0.2c3.3,0.6,5.9,2.1,7.7,4.5c1.8,2.4,2.8,5.3,2.8,8.8c0,5.1-1.8,9.3-5.4,12.4
		C30.5,58.3,26,59.8,20.5,59.8z"/>
</g>
<g class="st1">
	<path class="st3" d="M37.4,58.9h-12v-12H0v-9l20-35h13.8l-18.3,32h10v-12h12v12H44v12h-6.6V58.9z"/>
</g>
<g class="st1">
	<path class="st3" d="M7.2,33.7l3.8-31.4h27.7v12H21.6l-1.1,7.1h1.9c5,0,9.2,1.7,12.5,5c3.4,3.3,5,7.7,5,13.3
		c0,6.1-1.9,10.9-5.8,14.4c-3.9,3.5-8.8,5.2-14.6,5.2c-3.1,0-6.3-0.7-9.4-2C7,55.9,4.6,54.1,3,51.8l6.7-9.2c1.1,1.3,2.7,2.5,4.6,3.4
		c1.9,0.9,3.8,1.4,5.6,1.4c2.1,0,3.9-0.7,5.2-2c1.4-1.3,2-3,2-5.1c0-2.4-0.9-4.3-2.8-5.8c-1.8-1.5-4.4-2.2-7.6-2.2
		C12.4,32.2,9.2,32.7,7.2,33.7z"/>
</g>
</svg>
