<?xml version="1.0" encoding="utf-8"?>
<!-- Generator: Adobe Illustrator 19.2.0, SVG Export Plug-In . SVG Version: 6.00 Build 0)  -->
<svg version="1.1" id="Слой_1" xmlns="http://www.w3.org/2000/svg" xmlns:xlink="http://www.w3.org/1999/xlink" x="0px" y="0px"
	 viewBox="0 0 649.7 366.7" style="enable-background:new 0 0 649.7 366.7;" xml:space="preserve">
<style type="text/css">
	.st0{display:none;}
	.st1{enable-background:new    ;}
	.st2{fill:#FFFFFF;}
</style>
<rect x="-31" y="-18" class="st0" width="716" height="405"/>
<title>DARI media white transparent</title>
<g id="Слой_2">
	<g id="Слой_1-2">
		<g class="st1">
			<path class="st2" d="M14.9,252.2h21.7l18.1,41.2L73,252.2h21.7v84.3H72.8l0.1-24.3l1.3-17l-0.7-0.1L62.3,324H47.3l-11.5-28.9
				l-0.6,0.1l1.5,17v24.3H14.9V252.2z"/>
			<path class="st2" d="M187.4,285.3h34.9v18.5h-34.9v12.6h37.9v20.1h-59.9v-84.3h59.9v20h-37.9V285.3z"/>
			<path class="st2" d="M326.1,252.2c17.2,0,33.4,8.6,33.4,28.2v28.3c0,19.4-16.2,27.9-33.4,27.7h-32.2v-84.3H326.1z M326.8,316.5
				c7.4,0,10.8-3.7,10.8-9.2V281c0-5.5-3.5-8.9-10.8-8.9h-11.1v44.4H326.8z"/>
			<path class="st2" d="M450,336.5h-21.7v-84.3H450V336.5z"/>
			<path class="st2" d="M593.7,336.5h-23.3l-5.6-16.9h-23l-5.3,16.9h-23.3l30-84.3h19.8L593.7,336.5z M559.5,300.7l-6-24.6H553
				l-6.3,24.6H559.5z"/>
		</g>
		<g>
			<g class="st1">
				<path class="st2" d="M88.7,39.6c39.3,0,76,19.5,76,64.2v64.5c0,44.2-36.8,63.4-76,63.2H15.5V39.6H88.7z M90.4,185.9
					c16.9,0,24.6-8.4,24.6-20.9v-59.9c0-12.5-8-20.3-24.6-20.3H65.2v101.1H90.4z"/>
			</g>
			<g class="st1">
				<path class="st2" d="M352.2,231.5h-53.1L286.4,193h-52.3L222,231.5h-53.1l68.3-191.9h45.1L352.2,231.5z M274.5,149.9L261,93.8
					h-1.4l-14.4,56.1H274.5z"/>
				<path class="st2" d="M424.1,170.5h-8.8v61h-50V39.6h78.2c40.4,0,71.6,18.2,72.7,63.2c0,35.5-14.7,55.6-38.4,62.9l53.4,65.9
					h-61.7L424.1,170.5z M444.3,128.7c31.2,0,31.2-43.9,0-43.9h-29v43.9H444.3z"/>
				<path class="st2" d="M593.3,231.5h-49.5V39.6h49.5V231.5z"/>
			</g>
		</g>
	</g>
</g>
</svg>
