<?xml version="1.0" encoding="utf-8"?>
<!-- Generator: Adobe Illustrator 19.2.0, SVG Export Plug-In . SVG Version: 6.00 Build 0)  -->
<svg version="1.1" id="Слой_1" xmlns="http://www.w3.org/2000/svg" xmlns:xlink="http://www.w3.org/1999/xlink" x="0px" y="0px"
	 viewBox="0 0 19.3 11" style="enable-background:new 0 0 19.3 11;" xml:space="preserve">
<style type="text/css">
	.st0{fill:#010101;}
</style>
<g>
	<g>
		<path class="st0" d="M19.3,0.8c0.2,0.4-0.3,1.4-1.5,3c-0.2,0.2-0.4,0.5-0.7,0.9c-0.3,0.3-0.5,0.6-0.6,0.7s-0.2,0.3-0.3,0.5
			c-0.1,0.2-0.1,0.3-0.1,0.4c0,0.1,0.1,0.2,0.1,0.3s0.2,0.3,0.3,0.4c0.2,0.1,0.3,0.3,0.6,0.5c0,0,0,0,0.1,0c0.9,0.9,1.6,1.6,1.9,2.2
			c0,0,0,0.1,0.1,0.1c0,0,0,0.1,0.1,0.3c0,0.1,0,0.2,0,0.3s-0.1,0.2-0.3,0.3S18.7,11,18.4,11l-2.6,0c-0.2,0-0.3,0-0.6-0.1
			c-0.2-0.1-0.4-0.1-0.5-0.2l-0.2-0.1c-0.2-0.1-0.4-0.4-0.7-0.6c-0.3-0.3-0.5-0.5-0.7-0.8c-0.2-0.2-0.4-0.4-0.6-0.6
			c-0.2-0.2-0.4-0.2-0.6-0.2c0,0,0,0-0.1,0c0,0-0.1,0.1-0.2,0.1c-0.1,0.1-0.2,0.2-0.2,0.3c-0.1,0.1-0.1,0.3-0.2,0.5
			c-0.1,0.2-0.1,0.5-0.1,0.8c0,0.1,0,0.2,0,0.3c0,0.1,0,0.1-0.1,0.2l0,0c-0.1,0.1-0.3,0.2-0.5,0.2H9.4c-0.5,0-1,0-1.5-0.2
			c-0.5-0.1-0.9-0.3-1.3-0.5s-0.7-0.4-1-0.7S5.1,9.2,4.9,9L4.7,8.8C4.6,8.7,4.5,8.6,4.4,8.5S4,8,3.7,7.6C3.3,7.1,2.9,6.6,2.6,6
			S1.8,4.8,1.4,3.9C0.9,3,0.5,2.1,0.1,1.2C0,1.1,0,1,0,0.9c0-0.1,0-0.1,0-0.2l0-0.1c0.1-0.1,0.3-0.2,0.6-0.2l2.8,0
			c0.1,0,0.2,0,0.2,0.1c0.1,0,0.1,0.1,0.2,0.1l0.1,0C3.9,0.7,4,0.8,4.1,1c0.1,0.3,0.3,0.7,0.5,1C4.7,2.4,4.9,2.7,5,2.8l0.2,0.3
			c0.2,0.4,0.4,0.8,0.6,1C5.9,4.5,6,4.7,6.2,4.9s0.3,0.3,0.4,0.4c0.1,0.1,0.2,0.1,0.3,0.1s0.2,0,0.3-0.1c0,0,0,0,0,0
			c0,0,0.1-0.1,0.1-0.2C7.4,5,7.5,4.8,7.5,4.6s0.1-0.5,0.1-0.8c0-0.3,0-0.8,0-1.3c0-0.3,0-0.5-0.1-0.7c0-0.2-0.1-0.4-0.1-0.5
			L7.3,1.2C7.1,1,6.9,0.8,6.4,0.8c-0.1,0-0.1-0.1,0.1-0.2c0.1-0.1,0.2-0.2,0.4-0.3C7.2,0.1,8,0,9.3,0c0.5,0,1,0.1,1.4,0.1
			c0.1,0,0.2,0.1,0.3,0.1s0.2,0.1,0.2,0.2c0,0.1,0.1,0.2,0.1,0.3s0,0.3,0,0.5s0,0.4,0,0.6c0,0.2,0,0.4,0,0.7c0,0.3,0,0.6,0,0.8
			c0,0.1,0,0.2,0,0.4c0,0.2,0,0.4,0,0.5c0,0.1,0,0.2,0,0.4c0,0.2,0.1,0.3,0.1,0.4c0.1,0.1,0.1,0.2,0.2,0.2c0.1,0,0.1,0,0.2,0
			c0.1,0,0.1,0,0.3-0.1c0.1-0.1,0.2-0.2,0.4-0.3c0.1-0.1,0.3-0.4,0.5-0.7s0.4-0.7,0.7-1.1c0.4-0.7,0.8-1.5,1.1-2.3
			c0-0.1,0.1-0.1,0.1-0.2c0-0.1,0.1-0.1,0.1-0.1l0,0c0,0,0,0,0.1,0s0.1,0,0.1,0c0.1,0,0.1,0,0.2,0l2.9,0c0.3,0,0.5,0,0.6,0
			c0.2,0.1,0.3,0.1,0.3,0.2L19.3,0.8z"/>
	</g>
</g>
</svg>
