<svg id="Слой_1" xmlns="http://www.w3.org/2000/svg" viewBox="0 0 44 61.7"><style>.st0{fill:#dae2c3}.st1{display:none}.st2,.st3{display:inline;fill:#dae2c3}.st3{fill:#e2d5cf}</style><path class="st0" d="M13.5 24.2l-6.2-9.9 15.2-11h8.6v56h-12v-39l-5.6 3.9z"/><g class="st1"><path class="st2" d="M39.6 59.1H3.5v-9.6c.1-.1 1.4-1.3 3.9-3.8l4.4-4.4c1-1.1 2.2-2.4 3.8-4 1.8-1.9 3.1-3.4 3.8-4.6l2.6-4.1c1.9-2.8 2.8-5.7 2.8-8.7 0-3.7-1.7-5.5-5.1-5.5-1.5 0-2.8.5-3.7 1.5-.9 1-1.7 2.5-2.5 4.5l-10-4.6c1-4.2 2.9-7.5 6-9.9 3-2.4 6.9-3.6 11.6-3.6 5.2 0 9.2 1.5 12.1 4.4 2.9 2.9 4.4 6.5 4.4 10.7 0 10.6-6.2 20.7-18.7 30.3h20.6v11.4z"/></g><g class="st1"><path class="st3" d="M20.5 59.8c-4.3 0-8-.8-11.2-2.5-3.2-1.7-5.6-3.9-7.3-6.8l6.6-8.9c3.6 4.1 7.3 6.2 11 6.2 2.2 0 4-.5 5.2-1.5 1.2-1 1.8-2.3 1.8-3.9 0-4.1-3.2-6.2-9.5-6.2h-3.5v-12h3.2c2.3 0 4.1-.5 5.6-1.5 1.4-1 2.1-2.4 2.1-4.1 0-1.4-.4-2.5-1.3-3.4-.9-.9-2.1-1.3-3.8-1.3-3.7 0-7 1.7-9.7 5l-6.6-8.6c3.4-5.6 9.2-8.4 17.4-8.4 5 0 9 1.3 12.1 3.9 3.1 2.6 4.7 6 4.7 10.4 0 6.2-2.8 10.6-8.3 13.1v.2c3.3.6 5.9 2.1 7.7 4.5 1.8 2.4 2.8 5.3 2.8 8.8 0 5.1-1.8 9.3-5.4 12.4-3.6 3.1-8.1 4.6-13.6 4.6z"/></g><g class="st1"><path class="st3" d="M37.4 58.9h-12v-12H0v-9l20-35h13.8l-18.3 32h10v-12h12v12H44v12h-6.6v12z"/></g><g class="st1"><path class="st3" d="M7.2 33.7L11 2.3h27.7v12H21.6l-1.1 7.1h1.9c5 0 9.2 1.7 12.5 5 3.4 3.3 5 7.7 5 13.3 0 6.1-1.9 10.9-5.8 14.4s-8.8 5.2-14.6 5.2c-3.1 0-6.3-.7-9.4-2C7 55.9 4.6 54.1 3 51.8l6.7-9.2c1.1 1.3 2.7 2.5 4.6 3.4 1.9.9 3.8 1.4 5.6 1.4 2.1 0 3.9-.7 5.2-2 1.4-1.3 2-3 2-5.1 0-2.4-.9-4.3-2.8-5.8-1.8-1.5-4.4-2.2-7.6-2.2-4.3-.1-7.5.4-9.5 1.4z"/></g></svg>