<svg id="Слой_1" xmlns="http://www.w3.org/2000/svg" viewBox="0 0 649.7 366.7"><style>.st0{display:none}.st1{enable-background:new}.st2{fill:#fff}</style><path class="st0" d="M-31-18h716v405H-31z"/><title>DARI media white transparent</title><g id="Слой_2"><g id="Слой_1-2"><g class="st1"><path class="st2" d="M14.9 252.2h21.7l18.1 41.2L73 252.2h21.7v84.3H72.8l.1-24.3 1.3-17-.7-.1L62.3 324h-15l-11.5-28.9-.6.1 1.5 17v24.3H14.9v-84.3zm172.5 33.1h34.9v18.5h-34.9v12.6h37.9v20.1h-59.9v-84.3h59.9v20h-37.9v13.1zm138.7-33.1c17.2 0 33.4 8.6 33.4 28.2v28.3c0 19.4-16.2 27.9-33.4 27.7h-32.2v-84.3h32.2zm.7 64.3c7.4 0 10.8-3.7 10.8-9.2V281c0-5.5-3.5-8.9-10.8-8.9h-11.1v44.4h11.1zm123.2 20h-21.7v-84.3H450v84.3zm143.7 0h-23.3l-5.6-16.9h-23l-5.3 16.9h-23.3l30-84.3H563l30.7 84.3zm-34.2-35.8l-6-24.6h-.5l-6.3 24.6h12.8z"/></g><g class="st1"><path class="st2" d="M88.7 39.6c39.3 0 76 19.5 76 64.2v64.5c0 44.2-36.8 63.4-76 63.2H15.5V39.6h73.2zm1.7 146.3c16.9 0 24.6-8.4 24.6-20.9v-59.9c0-12.5-8-20.3-24.6-20.3H65.2v101.1h25.2z"/></g><g class="st1"><path class="st2" d="M352.2 231.5h-53.1L286.4 193h-52.3L222 231.5h-53.1l68.3-191.9h45.1l69.9 191.9zm-77.7-81.6L261 93.8h-1.4l-14.4 56.1h29.3zm149.6 20.6h-8.8v61h-50V39.6h78.2c40.4 0 71.6 18.2 72.7 63.2 0 35.5-14.7 55.6-38.4 62.9l53.4 65.9h-61.7l-45.4-61.1zm20.2-41.8c31.2 0 31.2-43.9 0-43.9h-29v43.9h29zm149 102.8h-49.5V39.6h49.5v191.9z"/></g></g></g></svg>