<svg id="Слой_1" xmlns="http://www.w3.org/2000/svg" viewBox="0 0 19.3 11"><style>.st0{fill:#010101}</style><path class="st0" d="M19.3.8c.2.4-.3 1.4-1.5 3-.2.2-.4.5-.7.9-.3.3-.5.6-.6.7s-.2.3-.3.5c-.1.2-.1.3-.1.4 0 .1.1.2.1.3s.2.3.3.4c.2.1.3.3.6.5h.1c.9.9 1.6 1.6 1.9 2.2 0 0 0 .1.1.1 0 0 0 .1.1.3v.3c0 .1-.1.2-.3.3s-.3.3-.6.3h-2.6c-.2 0-.3 0-.6-.1-.2-.1-.4-.1-.5-.2l-.2-.1c-.2-.1-.4-.4-.7-.6-.3-.3-.5-.5-.7-.8l-.6-.6c-.2-.2-.4-.2-.6-.2h-.1s-.1.1-.2.1c-.1.1-.2.2-.2.3-.1.1-.1.3-.2.5s-.1.5-.1.8v.3c0 .1 0 .1-.1.2s-.3.2-.5.2H9.4c-.5 0-1 0-1.5-.2-.5-.1-.9-.3-1.3-.5s-.7-.4-1-.7-.5-.2-.7-.4l-.2-.2-.3-.3c-.1-.1-.4-.5-.7-.9-.4-.5-.8-1-1.1-1.6s-.8-1.2-1.2-2.1C.9 3 .5 2.1.1 1.2 0 1.1 0 1 0 .9V.6C.1.5.3.4.6.4h2.8c.1 0 .2 0 .2.1.1 0 .1.1.2.1h.1c0 .1.1.2.2.4.1.3.3.7.5 1 .1.4.3.7.4.8l.2.3c.2.4.4.8.6 1 .1.4.2.6.4.8l.4.4c.1.1.2.1.3.1s.2 0 .3-.1c0 0 .1-.1.1-.2.1-.1.2-.3.2-.5s.1-.5.1-.8V2.5c0-.3 0-.5-.1-.7 0-.2-.1-.4-.1-.5l-.1-.1C7.1 1 6.9.8 6.4.8c-.1 0-.1-.1.1-.2.1-.1.2-.2.4-.3C7.2.1 8 0 9.3 0c.5 0 1 .1 1.4.1.1 0 .2.1.3.1s.2.1.2.2.1.2.1.3v3.9c0 .2.1.3.1.4.1.1.1.2.2.2h.2c.1 0 .1 0 .3-.1.1-.1.2-.2.4-.3.1-.1.3-.4.5-.7s.4-.7.7-1.1c.4-.7.8-1.5 1.1-2.3 0-.1.1-.1.1-.2s.1-.1.1-.1h3.9c.2.1.3.1.3.2l.1.2z"/></svg>